<svg xmlns="http://www.w3.org/2000/svg" xmlns:xlink="http://www.w3.org/1999/xlink" width="50" height="50" viewBox="0 0 50 50" fill="none"><g opacity="1"  transform="translate(0 0)  rotate(0)"><g opacity="1"  transform="translate(0 0)  rotate(0)"><mask id="mask-0" fill="white"><path d="M6 50L44 50C47.31 50 50 47.31 50 44L50 6C50 2.69 47.31 0 44 0L6 0C2.69 0 0 2.69 0 6L0 44C0 47.31 2.69 50 6 50Z"  ></path></mask><g mask="url(#mask-0)"><path id="矩形 2" fill-rule="evenodd" style="fill:#FB856B" opacity="1" d="M6 50L44 50C47.31 50 50 47.31 50 44L50 6C50 2.69 47.31 0 44 0L6 0C2.69 0 0 2.69 0 6L0 44C0 47.31 2.69 50 6 50Z"></path></g><g mask="url(#mask-0)"><g opacity="1"  transform="translate(-17.99993896484375 1.999969482421875)  rotate(0)"><g opacity="1"  transform="translate(0 0)  rotate(0)"><path id="路径 1" fill-rule="evenodd" style="fill:#FFB379" opacity="1" d="M24.2864 1.85947C22.6313 1.26092 21.2133 0.567366 19.7492 1.25011C18.2978 1.92687 17.9142 3.46827 17.3054 5.13027L0.581758 50.7836C0.406338 51.2624 0.51417 51.6949 0.782087 52.0683C1.04404 52.4288 1.56836 52.4802 2.0117 52.3747L9.4428 50.8405L13.1199 57.083L19.9752 54.6494L23.8759 60.2816C24.1379 60.6422 24.7303 60.8564 25.2959 60.7951L31.9183 58.9684L35.5954 65.211L42.4507 62.7773L47.1601 68.702C47.3505 68.9091 47.5443 69.1068 47.7794 69.1918C48.0145 69.2768 48.1368 69.3211 48.4131 69.2934C48.8599 69.1785 49.2223 68.9161 49.3977 68.4372L66.1214 22.7839C66.6738 21.1015 67.3454 19.6749 66.6527 18.2228C65.9633 16.7612 64.4319 16.3776 62.7674 15.7756L24.2864 1.85947Z"></path><path id="矩形 1" fill-rule="evenodd" style="fill:#FFC89E" opacity="1" d="M30.4134 16.3321L46.3882 22.1465C47.1682 22.4304 48.0269 22.0299 48.3108 21.25L48.3108 21.25C48.5947 20.47 48.1942 19.6113 47.4143 19.3274L31.4395 13.5131C30.6596 13.2292 29.8008 13.6296 29.5169 14.4096L29.5169 14.4096C29.2331 15.1895 29.6335 16.0483 30.4134 16.3321Z"></path><path id="矩形 1" fill-rule="evenodd" style="fill:#FFC89E" opacity="1" d="M20.4134 21.3321L51.4233 32.6188C52.2032 32.9027 53.062 32.5022 53.3459 31.7223L53.3459 31.7223C53.6297 30.9423 53.2293 30.0836 52.4494 29.7997L21.4395 18.5131C20.6596 18.2292 19.8008 18.6296 19.5169 19.4096L19.5169 19.4096C19.2331 20.1895 19.6335 21.0483 20.4134 21.3321Z"></path><path id="矩形 1" fill-rule="evenodd" style="fill:#FFC89E" opacity="1" d="M18.4134 27.3321L49.4233 38.6188C50.2032 38.9027 51.062 38.5022 51.3459 37.7223L51.3459 37.7223C51.6297 36.9423 51.2293 36.0836 50.4494 35.7997L19.4395 24.5131C18.6596 24.2292 17.8008 24.6296 17.5169 25.4096L17.5169 25.4096C17.2331 26.1895 17.6335 27.0483 18.4134 27.3321Z"></path><path id="矩形 1" fill-rule="evenodd" style="fill:#FFC89E" opacity="1" d="M17.4134 33.3321L39.0264 41.1986C39.8063 41.4825 40.6651 41.082 40.9489 40.3021L40.9489 40.3021C41.2328 39.5221 40.8324 38.6634 40.0524 38.3795L18.4395 30.5131C17.6596 30.2292 16.8008 30.6296 16.5169 31.4096L16.5169 31.4096C16.2331 32.1895 16.6335 33.0483 17.4134 33.3321Z"></path></g></g></g><g mask="url(#mask-0)"><path id="减去顶层" fill-rule="evenodd" style="fill:#FFC599" opacity="1" d="M37.2381,19.3354l-6.5759,-14.10201l14.1021,-6.57588l6.5758,14.10199zM47.1454,11.2327l-3.9092,-8.38331l-8.3833,3.90918l3.9092,8.38323z"></path></g></g></g></svg>