<svg xmlns="http://www.w3.org/2000/svg" xmlns:xlink="http://www.w3.org/1999/xlink" width="50" height="50" viewBox="0 0 50 50" fill="none"><g opacity="1"  transform="translate(0 0)  rotate(0)"><g opacity="1"  transform="translate(0 0)  rotate(0)"><mask id="mask-0" fill="white"><path d="M6 50L44 50C47.31 50 50 47.31 50 44L50 6C50 2.69 47.31 0 44 0L6 0C2.69 0 0 2.69 0 6L0 44C0 47.31 2.69 50 6 50Z"  ></path></mask><g mask="url(#mask-0)"><path id="矩形 2" fill-rule="evenodd" style="fill:#983FEB" opacity="1" d="M6 50L44 50C47.31 50 50 47.31 50 44L50 6C50 2.69 47.31 0 44 0L6 0C2.69 0 0 2.69 0 6L0 44C0 47.31 2.69 50 6 50Z"></path></g><g mask="url(#mask-0)"><path id="路径 1" fill-rule="evenodd" style="fill:#DB99F7" opacity="1" d="M0.529933 16.1786C-1.23006 16.1823 -2.79971 16.0156 -3.94204 17.158C-5.07434 18.2903 -4.90756 19.87 -4.91117 21.64L-5.01035 70.2599C-5.01139 70.7699 -4.76214 71.1393 -4.38267 71.3985C-4.01318 71.6478 -3.50292 71.5167 -3.12241 71.2659L3.33567 67.2824L8.92624 71.8907L14.5356 67.2589L20.1275 71.2172C20.497 71.4664 21.127 71.4651 21.6375 71.214L27.2356 67.2323L32.8262 71.8406L38.4356 67.2089L44.8875 71.1653C45.1372 71.2948 45.387 71.4143 45.637 71.4138C45.887 71.4132 46.017 71.413 46.2672 71.2924C46.6477 71.0316 46.8985 70.6611 46.8995 70.1511L46.9987 21.5312C46.9423 19.7614 47.0855 18.1911 45.9378 17.0635C44.7902 15.9259 43.2198 16.0892 41.4498 16.0929L0.529933 16.1786Z"></path></g><g mask="url(#mask-0)"><path id="矩形 1" fill-rule="evenodd" style="fill:#F0CFFF" opacity="1" d="M4.5 24L10.5 24C11.33 24 12 23.33 12 22.5L12 22.5C12 21.67 11.33 21 10.5 21L4.5 21C3.67 21 3 21.67 3 22.5L3 22.5C3 23.33 3.67 24 4.5 24Z"></path></g><g mask="url(#mask-0)"><path id="矩形 1" fill-rule="evenodd" style="fill:#F0CFFF" opacity="1" d="M4 29L20 29C20.55 29 21 28.55 21 28L21 28C21 27.45 20.55 27 20 27L4 27C3.45 27 3 27.45 3 28L3 28C3 28.55 3.45 29 4 29Z"></path></g><g mask="url(#mask-0)"><path id="矩形 1" fill-rule="evenodd" style="fill:#F0CFFF" opacity="1" d="M4 33L20 33C20.55 33 21 32.55 21 32L21 32C21 31.45 20.55 31 20 31L4 31C3.45 31 3 31.45 3 32L3 32C3 32.55 3.45 33 4 33Z"></path></g><g mask="url(#mask-0)"><path id="矩形 1" fill-rule="evenodd" style="fill:#F0CFFF" opacity="1" d="M4 37L20 37C20.55 37 21 36.55 21 36L21 36C21 35.45 20.55 35 20 35L4 35C3.45 35 3 35.45 3 36L3 36C3 36.55 3.45 37 4 37Z"></path></g><g mask="url(#mask-0)"><path id="矩形 1" fill-rule="evenodd" style="fill:#F0CFFF" opacity="1" d="M4 41L13.25 41C13.8 41 14.25 40.55 14.25 40L14.25 40C14.25 39.45 13.8 39 13.25 39L4 39C3.45 39 3 39.45 3 40L3 40C3 40.55 3.45 41 4 41Z"></path></g><g mask="url(#mask-0)"><path id="路径 1" fill-rule="evenodd" style="fill:#F7FBFF" opacity="1" d="M29.5399 5.1786C27.7799 5.18229 26.2103 5.01557 25.068 6.15796C23.9357 7.29032 24.1024 8.86996 24.0988 10.64L23.9997 59.2599C23.9986 59.7699 24.2479 60.1393 24.6273 60.3985C24.9968 60.6478 25.5071 60.5167 25.8876 60.2659L32.3457 56.2824L37.9362 60.8907L43.5457 56.2589L49.1376 60.2172C49.507 60.4664 50.137 60.4651 50.6475 60.214L56.2456 56.2323L61.8362 60.8406L67.4456 56.2089L73.8975 60.1653C74.1472 60.2948 74.397 60.4143 74.647 60.4138C74.897 60.4132 75.027 60.413 75.2772 60.2924C75.6578 60.0317 75.9085 59.6611 75.9095 59.1511L76.0087 10.5312C75.9523 8.76137 76.0955 7.19108 74.9478 6.06349C73.8002 4.9259 72.2299 5.08919 70.4599 5.0929L29.5399 5.1786Z"></path></g><g mask="url(#mask-0)"><path id="圆形 1" fill-rule="evenodd" style="fill:#F7FBFF" opacity="1" d="M39 12C35.69 12 33 14.69 33 18C33 21.31 35.69 24 39 24C42.31 24 45 21.31 45 18C45 14.69 42.31 12 39 12Z"></path><path  id="圆形 1" style="fill:#D6D0F2; opacity:1;" d="M39,14c-2.2091,0 -4,1.7909 -4,4c0,2.2091 1.7909,4 4,4c2.2091,0 4,-1.7909 4,-4c0,-2.2091 -1.7909,-4 -4,-4zM39,10c4.4183,0 8,3.5817 8,8c0,4.4183 -3.5817,8 -8,8c-4.4183,0 -8,-3.5817 -8,-8c0,-4.4183 3.5817,-8 8,-8z"></path></g><g mask="url(#mask-0)"><path id="矩形 5" fill-rule="evenodd" style="fill:#D8D3F2" opacity="0.4" d="M34.07 30.14L43.61 30.14C44.2 30.14 44.69 29.66 44.69 29.07L44.69 29.07C44.69 28.48 44.2 28 43.61 28L34.07 28C33.48 28 33 28.48 33 29.07L33 29.07C33 29.66 33.48 30.14 34.07 30.14Z"></path></g><g mask="url(#mask-0)"><path id="矩形 2" fill-rule="evenodd" style="fill:#D6D0F2" opacity="1" d="M33.8158 45.2322L37.8946 44.0486L60.9701 27.891L59.3985 25.6466L36.323 41.8042L33.8158 45.2322Z"></path></g></g></g></svg>