<svg xmlns="http://www.w3.org/2000/svg" xmlns:xlink="http://www.w3.org/1999/xlink" width="50.14013671875" height="50.00128173828125" viewBox="0 0 50.14013671875 50.00128173828125" fill="none"><g opacity="1"  transform="translate(0 0.00128173828125)  rotate(0)"><path id="矩形 2" fill-rule="evenodd" style="fill:#A26AC0" opacity="1" d="M6 50L44 50C47.31 50 50 47.31 50 44L50 6C50 2.69 47.31 0 44 0L6 0C2.69 0 0 2.69 0 6L0 44C0 47.31 2.69 50 6 50Z"></path><path id="矩形 2" fill-rule="evenodd" style="fill:#4A3C52" opacity="1" d="M25 0L12.5 0L6.25 0L6 0C2.72 -0.07 0.12 2.72 0.41 5.99C0.87 10.09 1.85 15.84 3.94 21.73C6.29 28.35 11.03 36.15 17 41C22.36 45.36 26.44 47.02 31.5 48.5C35.26 49.6 37 50 40 50C42.48 50 39.36 49.93 42 49.94C44.17 49.94 46.17 49.96 47.63 49.97C49.47 49.46 50.54 47.54 50 45.7L50 6C50 2.69 47.31 0 44 0L25 0Z"></path><path id="矩形 2" fill-rule="evenodd" style="fill:#A26AC0" opacity="1" d="M38 28L50 28L50 6C50 2.69 47.31 0 44 0L38 0L38 28Z"></path><g opacity="1"  transform="translate(0.5899658203125 4.09002685546875)  rotate(0)"><g opacity="1"  transform="translate(0 9.375457763671875)  rotate(0)"><path id="路径 1" fill-rule="evenodd" style="fill:#FFB379" opacity="1" d="M2.69691 -0.981597C1.823 -0.663519 1.0157 -0.454818 0.657093 0.31421C0.311307 1.08921 0.67378 1.85119 0.995279 2.7345L12.3503 33.9323C12.4427 34.186 12.6427 34.3261 12.8785 34.3892C13.1109 34.443 13.3347 34.2977 13.4747 34.0977L15.954 30.9393L19.5803 32.2479L21.5076 28.9179L25.0141 29.8977C25.25 29.9608 25.5601 29.848 25.7565 29.6275L27.8129 26.623L31.4392 27.9316L33.3665 24.6016L37.2959 25.4275C37.442 25.4488 37.5975 25.4667 37.7197 25.4222C37.8418 25.3778 37.9076 25.3538 38.0058 25.2436C38.1459 25.0436 38.1996 24.8112 38.1073 24.5575L26.7522 -6.64026C26.4025 -7.51331 26.181 -8.3266 25.412 -8.6852C24.6301 -9.04978 23.8776 -8.69073 23.0036 -8.37265L2.69691 -0.981597Z"></path><path id="矩形 2" fill-rule="evenodd" style="fill:#F69A5B" opacity="1" d="M6.56556 5.42893L12.9273 3.11346C13.2843 2.98349 13.4696 2.58617 13.3397 2.22909L13.3397 2.22909C13.2097 1.87201 12.8124 1.68673 12.4553 1.8167L6.09358 4.13217C5.73649 4.26214 5.55122 4.65947 5.68118 5.01655L5.68118 5.01655C5.81115 5.37362 6.20848 5.5589 6.56556 5.42893Z"></path><path id="矩形 2" fill-rule="evenodd" style="fill:#F69A5B" opacity="1" d="M11.275 18.3688L15.9359 16.6724C16.293 16.5424 16.4783 16.1451 16.3483 15.788L16.3483 15.788C16.2184 15.4309 15.821 15.2456 15.4639 15.3756L10.8031 17.072C10.446 17.202 10.2607 17.5993 10.3907 17.9564L10.3907 17.9564C10.5206 18.3135 10.918 18.4988 11.275 18.3688Z"></path><path id="矩形 2" fill-rule="evenodd" style="fill:#F69A5B" opacity="1" d="M27.5619 20.7444L32.2228 19.0479C32.5799 18.918 32.7651 18.5206 32.6352 18.1636L32.6352 18.1636C32.5052 17.8065 32.1079 17.6212 31.7508 17.7512L27.0899 19.4476C26.7328 19.5775 26.5476 19.9749 26.6775 20.332L26.6775 20.332C26.8075 20.689 27.2048 20.8743 27.5619 20.7444Z"></path><path id="矩形 2" fill-rule="evenodd" style="fill:#F69A5B" opacity="1" d="M18.0839 15.8906L29.5575 11.7145C29.9146 11.5846 30.0999 11.1872 29.9699 10.8302L29.9699 10.8302C29.8399 10.4731 29.4426 10.2878 29.0855 10.4178L17.6119 14.5938C17.2548 14.7238 17.0695 15.1211 17.1995 15.4782L17.1995 15.4782C17.3295 15.8353 17.7268 16.0206 18.0839 15.8906Z"></path><path id="矩形 2" fill-rule="evenodd" style="fill:#F69A5B" opacity="1" d="M7.66445 8.44803L25.0957 2.10356C25.4528 1.97359 25.6381 1.57625 25.5081 1.21917L25.5081 1.21917C25.3782 0.862081 24.9808 0.676799 24.6238 0.806767L7.19246 7.15124C6.83537 7.28121 6.65009 7.67855 6.78006 8.03563L6.78006 8.03563C6.91003 8.39272 7.30737 8.578 7.66445 8.44803Z"></path></g><path id="矩形 2" fill-rule="evenodd" style="fill:#D4661E" opacity="1" d="M28.8718 34.5066L32.0092 32.9572L48.3782 16.4179L46.7743 14.7974L30.4052 31.3367L28.8718 34.5066Z"></path></g></g></svg>